<svg width="40" height="40" viewBox="0 0 40 40" fill="none" xmlns="http://www.w3.org/2000/svg">
<path d="M5.00002 5L10.982 10.9819M35 35L29.0187 29.0187M23.1248 31.3744C22.1129 31.5663 21.0686 31.6667 20.0008 31.6667C12.538 31.6667 6.22086 26.7618 4.09711 19.9999C4.67527 18.1592 5.5642 16.456 6.70241 14.952M16.4645 16.4645C17.3693 15.5596 18.6193 15 20 15C22.7614 15 25 17.2386 25 20C25 21.3807 24.4404 22.6307 23.5356 23.5355M16.4645 16.4645L23.5356 23.5355M16.4645 16.4645L10.982 10.9819M23.5356 23.5355L10.982 10.9819M23.5356 23.5355L29.0187 29.0187M10.982 10.9819C13.5817 9.3059 16.6776 8.33333 20.0008 8.33333C27.4635 8.33333 33.7807 13.2382 35.9044 20.0001C34.7262 23.7512 32.2576 26.9309 29.0187 29.0187" stroke="#C1C1C1" stroke-width="3" stroke-linecap="round" stroke-linejoin="round"/>
</svg>
